<?xml version="1.0" encoding="UTF-8" standalone="no"?>
<!-- Created with Inkscape (http://www.inkscape.org/) -->

<svg
   xmlns:dc="http://purl.org/dc/elements/1.1/"
   xmlns:cc="http://creativecommons.org/ns#"
   xmlns:rdf="http://www.w3.org/1999/02/22-rdf-syntax-ns#"
   xmlns:svg="http://www.w3.org/2000/svg"
   xmlns="http://www.w3.org/2000/svg"
   xmlns:sodipodi="http://sodipodi.sourceforge.net/DTD/sodipodi-0.dtd"
   xmlns:inkscape="http://www.inkscape.org/namespaces/inkscape"
   width="247.47325mm"
   height="284.29062mm"
   viewBox="0 0 247.47325 284.29062"
   version="1.1"
   id="svg8"
   inkscape:version="0.92.1 r"
   sodipodi:docname="logo.sv.svg"
   inkscape:export-filename="/home/cluosh/tuwien/lilium/res/logo.png"
   inkscape:export-xdpi="25.731415"
   inkscape:export-ydpi="25.731415">
  <defs
     id="defs2" />
  <sodipodi:namedview
     id="base"
     pagecolor="#ffffff"
     bordercolor="#666666"
     borderopacity="1.0"
     inkscape:pageopacity="0.0"
     inkscape:pageshadow="2"
     inkscape:zoom="0.51527778"
     inkscape:cx="179.67367"
     inkscape:cy="489.92663"
     inkscape:document-units="mm"
     inkscape:current-layer="layer1"
     showgrid="false"
     fit-margin-top="0"
     fit-margin-left="0"
     fit-margin-right="0"
     fit-margin-bottom="0"
     inkscape:window-width="1920"
     inkscape:window-height="1055"
     inkscape:window-x="0"
     inkscape:window-y="0"
     inkscape:window-maximized="0" />
  <metadata
     id="metadata5">
    <rdf:RDF>
      <cc:Work
         rdf:about="">
        <dc:format>image/svg+xml</dc:format>
        <dc:type
           rdf:resource="http://purl.org/dc/dcmitype/StillImage" />
        <dc:title></dc:title>
      </cc:Work>
    </rdf:RDF>
  </metadata>
  <g
     inkscape:label="Layer 1"
     inkscape:groupmode="layer"
     id="layer1"
     transform="translate(11.882298,-59.816715)">
    <g
       id="g4596">
      <path
         inkscape:transform-center-x="1.2565081e-06"
         inkscape:transform-center-y="82.175077"
         inkscape:connector-curvature="0"
         id="path4558"
         d="m 112.39207,343.96379 c 11.70891,-0.33847 50.51373,-115.65053 24.3396,-119.82989 H 86.978639 c -26.58959,4.2457 13.879171,123.17997 24.876511,119.75806 0.17184,0.0535 0.35107,0.0772 0.53692,0.0718 z"
         style="fill:#cacdff;fill-opacity:1;stroke:#000000;stroke-width:0.27892178px;stroke-linecap:butt;stroke-linejoin:miter;stroke-opacity:1" />
      <path
         style="fill:#cacdff;fill-opacity:1;stroke:#000000;stroke-width:0.27892178px;stroke-linecap:butt;stroke-linejoin:miter;stroke-opacity:1"
         d="m 234.63998,130.36433 c -6.14758,-9.97098 -125.41316,14.07909 -115.94553,38.83623 l 24.87652,43.08739 c 16.97167,20.90441 99.73739,-73.6097 91.27526,-81.42272 -0.0396,-0.17557 -0.10868,-0.34263 -0.20628,-0.50089 z"
         id="path4585"
         inkscape:connector-curvature="0"
         inkscape:transform-center-y="-30.197352"
         inkscape:transform-center-x="-64.950403" />
      <path
         inkscape:transform-center-x="64.950497"
         inkscape:transform-center-y="-30.197264"
         inkscape:connector-curvature="0"
         id="path4587"
         d="m -11.466535,131.29426 c -5.561332,10.30945 74.89943,101.57144 91.605927,80.99366 l 24.876518,-43.08739 c 9.61791,-25.1501 -113.6165688,-49.57026 -116.151778,-38.33533 -0.132248,0.12208 -0.242386,0.26543 -0.330643,0.42909 z"
         style="fill:#cacdff;fill-opacity:1;stroke:#000000;stroke-width:0.27892178px;stroke-linecap:butt;stroke-linejoin:miter;stroke-opacity:1" />
      <path
         inkscape:transform-center-y="-82.026676"
         inkscape:connector-curvature="0"
         style="fill:#ffe3ff;fill-opacity:1;stroke:#000000;stroke-width:0.31756803px;stroke-linecap:butt;stroke-linejoin:miter;stroke-opacity:1"
         d="m 111.85508,59.848913 -1.09658,5.295342 -0.001,0.0038 C 95.455558,134.58683 55.797007,145.44776 86.978562,179.95556 H 136.7316 c 31.17497,-34.50051 -8.46118,-45.36415 -23.77013,-114.76366 -7.9e-4,-0.0041 -0.002,-0.0085 -0.003,-0.01267 z"
         id="path4505" />
      <path
         inkscape:transform-center-x="64.818094"
         id="path4575"
         d="m -11.189931,272.96884 5.1341908,-1.698 0.00379,-0.001 C 61.734765,249.80229 90.969882,278.71713 105.26374,234.45921 L 80.387217,191.37182 c -45.465804,-9.74806 -35.055917,30.00967 -87.5031804,77.96737 -0.00316,0.003 -0.00636,0.006 -0.00947,0.009 z"
         style="fill:#ffe3ff;fill-opacity:1;stroke:#000000;stroke-width:0.31756803px;stroke-linecap:butt;stroke-linejoin:miter;stroke-opacity:1"
         inkscape:connector-curvature="0"
         inkscape:transform-center-y="29.500583" />
      <path
         inkscape:transform-center-y="29.500602"
         inkscape:connector-curvature="0"
         style="fill:#ffe3ff;fill-opacity:1;stroke:#000000;stroke-width:0.31756803px;stroke-linecap:butt;stroke-linejoin:miter;stroke-opacity:1"
         d="m 234.89984,272.96898 -4.0376,-3.59734 -0.003,-0.003 c -52.4848,-47.97124 -42.06138,-87.74701 -87.53679,-77.9969 l -24.87651,43.0874 c 14.29083,44.24857 43.51709,15.35448 111.27331,36.79629 0.004,0.001 0.008,0.003 0.0125,0.004 z"
         id="path4577"
         inkscape:transform-center-x="-64.817892" />
      <circle
         r="42.711311"
         cy="201.89812"
         cx="111.85496"
         id="path4531"
         style="fill:#ffffff;stroke:#000000;stroke-width:0.26458332;stroke-opacity:1" />
    </g>
  </g>
</svg>
